<svg height="496pt" viewBox="0 0 496 496" width="496pt" xmlns="http://www.w3.org/2000/svg"><path d="m408 303.824219c-4.289062 0-8.550781.421875-12.777344 1.039062l-61.246094-114.839843 8.664063-46.199219h9.359375c13.230469 0 24-10.769531 24-24v-16c0-13.230469-10.769531-24-24-24h-17.367188c-6.410156 0-12.441406 2.496093-16.976562 7.03125l-6.625 6.625c-1.511719 1.511719-3.527344 2.34375-5.664062 2.34375h-17.367188c-13.230469 0-24 10.769531-24 24s10.769531 24 24 24h6.238281l-6.398437 32h-128.695313l27.792969-127.824219h45.0625c13.230469 0 24-10.769531 24-24s-10.769531-24-24-24h-96c-13.230469 0-24 10.769531-24 24 0 12.929688 10.289062 23.425781 23.097656 23.910156l-55.738281 256.402344c-45.28125 4.414062-79.359375 41.910156-79.359375 87.511719 0 48.519531 39.480469 88 88 88 40.191406 0 74.105469-27.121094 84.59375-64h43.460938c5.777343 7.71875 14.167968 13.375 23.945312 15.367187v32.632813h-32v32.175781h16v-16.175781h64v-31.824219h-16v15.824219h-16v-32.632813c9.777344-1.992187 18.167969-7.648437 23.945312-15.367187h43.421876c10.609374 37.441406 45.191406 64 84.632812 64 48.519531 0 88-39.480469 88-88s-39.480469-88-88-88zm1.40625 61.648437c.449219.847656.785156 1.742188 1.195312 2.617188-.867187-.097656-1.714843-.265625-2.601562-.265625h-14.703125l-68.710937-127.71875 4.671874-24.921875zm22.59375 26.351563c0-11.777344-2.929688-23.496094-8.472656-33.878907l-1.902344-3.570312c15.335938 5.601562 26.375 20.199219 26.375 37.449219 0 22.054687-17.945312 40-40 40-12.792969 0-24.558594-6.128907-31.984375-16h31.984375c13.230469 0 24-10.769531 24-24zm-112.113281-126.671875 31.800781 59.105468c-.917969.765626-1.800781 1.558594-2.679688 2.359376-.777343.703124-1.535156 1.421874-2.289062 2.152343-1.445312 1.398438-2.832031 2.847657-4.175781 4.335938-.550781.613281-1.101563 1.230469-1.640625 1.863281-1.445313 1.703125-2.8125 3.464844-4.117188 5.261719-.386718.53125-.777344 1.050781-1.144531 1.585937-1.351563 1.953125-2.601563 3.953125-3.785156 6.007813-.289063.488281-.582031.96875-.863281 1.464843-1.160157 2.09375-2.207032 4.253907-3.199219 6.445313-.234375.523437-.496094 1.019531-.722657 1.546875-.933593 2.199219-1.75 4.445312-2.511718 6.726562-.183594.550782-.414063 1.089844-.582032 1.648438-.222656.71875-.390624 1.457031-.601562 2.183594h-22.734375zm21.882812 98.441406c.207031-.496094.460938-.976562.6875-1.464844.78125-1.722656 1.597657-3.417968 2.511719-5.066406.253906-.453125.535156-.902344.800781-1.359375.941407-1.613281 1.933594-3.207031 3-4.75.335938-.480469.6875-.953125 1.03125-1.425781 1.039063-1.429688 2.128907-2.824219 3.269531-4.175782.464844-.550781.945313-1.085937 1.425782-1.625 1.070312-1.191406 2.183594-2.34375 3.335937-3.460937.535157-.523437 1.078125-1.035156 1.640625-1.546875l15.65625 29.105469h-34.9375c.503906-1.425781.984375-2.847657 1.578125-4.230469zm-53.769531-235.769531c-4.40625 0-8-3.59375-8-8 0-4.410157 3.59375-8 8-8h17.367188c6.410156 0 12.441406-2.496094 16.976562-7.03125l6.625-6.625c1.511719-1.511719 3.527344-2.34375 5.664062-2.34375h17.367188c4.40625 0 8 3.589843 8 8v16c0 4.40625-3.59375 8-8 8zm38.359375 16-42 224h-4.710937c-3.214844-4.199219-7.214844-7.695313-11.816407-10.351563l42.726563-213.648437zm-197.28125 170.273437 6.289063-28.929687 68.890624 82.65625h-31.671874c-6.53125-22.914063-22.160157-42.449219-43.507813-53.726563zm-42.628906 85.726563h5.902343c10.488282 0 19.710938-7.441407 21.9375-17.679688l3.640626-16.738281c6.359374 7.179688 10.070312 16.464844 10.070312 26.417969 0 22.054687-17.945312 40-40 40s-40-17.945313-40-40c0-14.449219 7.808594-27.320313 19.800781-34.351563l-3.289062 15.136719c-.34375 1.558594-.511719 3.167969-.511719 4.765625 0 12.378906 10.070312 22.449219 22.449219 22.449219zm62.628906-176h129.160156l-25 125zm71.800781 138.960937-81.199218-97.441406 4.792968-22.054688 92.136719 110.566407c-5.9375 1.777343-11.296875 4.816406-15.730469 8.929687zm63.761719-170.960937-3.199219 16h-129.257812l3.480468-16zm-185.984375 186.929687c-.640625 2.933594-3.289062 5.070313-6.304688 5.070313h-5.902343c-3.554688 0-6.449219-2.894531-6.449219-6.449219 0-.464844.046875-.917969.144531-1.367188l71.304688-328h19.109375zm29.34375-354.753906c0-4.40625 3.59375-8 8-8h96c4.40625 0 8 3.59375 8 8s-3.59375 8-8 8h-96c-4.40625 0-8-3.585938-8-8zm-40 439.824219c-39.695312 0-72-32.304688-72-72 0-35.542969 25.320312-65.046875 59.742188-70.878907l-3.789063 17.429688c-23.601563 7.074219-39.953125 28.640625-39.953125 53.449219 0 30.878906 25.121094 56 56 56s56-25.121094 56-56c0-17.726563-8.335938-33.96875-22.152344-44.449219l3.671875-16.878906c21.074219 12.886718 34.480469 35.96875 34.480469 61.328125 0 39.695312-32.304688 72-72 72zm87.59375-64c.238281-2.640625.40625-5.296875.40625-8 0-2.695313-.160156-5.351563-.398438-8h33.253907c-.550781 2.640625-.855469 5.375-.855469 8.175781 0 2.679688.289062 5.289062.792969 7.824219zm80.40625 14.703125v-30.703125h-16v30.703125c-9.289062-3.3125-16-12.113282-16-22.527344 0-13.230469 10.769531-24 24-24s24 10.769531 24 24c0 10.414062-6.710938 19.214844-16 22.527344zm31.144531-30.703125h120.855469c4.40625 0 8 3.589843 8 8 0 4.40625-3.59375 8-8 8h-120.792969c.503907-2.535157.792969-5.144531.792969-7.824219 0-2.800781-.304688-5.535156-.855469-8.175781zm120.855469 80c-30.71875 0-57.808594-19.703125-67.832031-48h17.390625c9.203125 19.304687 28.722656 32 50.441406 32 30.878906 0 56-25.121094 56-56 0-29.585938-23.070312-53.816407-52.167969-55.808594l-8.503906-15.945313c1.558594-.09375 3.113281-.246093 4.671875-.246093 39.695312 0 72 32.304687 72 72 0 39.695312-32.304688 72-72 72zm0 0"/></svg>